<svg width="40" height="40" viewBox="0 0 40 40" fill="none" xmlns="http://www.w3.org/2000/svg">
<rect width="40" height="40" rx="5" fill="#E50914"/>
<path d="M13.2827 9.258H10.6927V17H8.17273V9.258H5.58273V7.48H13.2827V9.258ZM19.3565 17.168C18.2645 17.168 17.3265 16.9487 16.5425 16.51C15.7679 16.062 15.1799 15.4647 14.7785 14.718C14.3865 13.9713 14.1905 13.1453 14.1905 12.24C14.1905 11.3347 14.3865 10.5087 14.7785 9.762C15.1799 9.01533 15.7679 8.42267 16.5425 7.984C17.3265 7.54533 18.2645 7.326 19.3565 7.326C20.4485 7.326 21.3819 7.55 22.1565 7.998C22.9405 8.43667 23.5285 9.02933 23.9205 9.776C24.3219 10.5133 24.5225 11.3347 24.5225 12.24C24.5225 13.1547 24.3219 13.9853 23.9205 14.732C23.5285 15.4787 22.9405 16.0713 22.1565 16.51C21.3819 16.9487 20.4485 17.168 19.3565 17.168ZM19.3565 15.362C19.9072 15.362 20.3785 15.2267 20.7705 14.956C21.1719 14.6853 21.4752 14.3167 21.6805 13.85C21.8952 13.374 22.0025 12.8373 22.0025 12.24C22.0025 11.3347 21.7645 10.5927 21.2885 10.014C20.8219 9.426 20.1779 9.132 19.3565 9.132C18.5352 9.132 17.8865 9.426 17.4105 10.014C16.9439 10.5927 16.7105 11.3347 16.7105 12.24C16.7105 12.8373 16.8132 13.374 17.0185 13.85C17.2332 14.3167 17.5365 14.6853 17.9285 14.956C18.3299 15.2267 18.8059 15.362 19.3565 15.362ZM30.3623 7.48C31.725 7.48 32.719 7.732 33.3443 8.236C33.9696 8.74 34.2823 9.538 34.2823 10.63C34.2823 11.722 33.9696 12.52 33.3443 13.024C32.719 13.528 31.725 13.78 30.3623 13.78H28.9343V17H26.4143V7.48H30.3623ZM30.3623 12.03C30.8663 12.0207 31.2256 11.9087 31.4403 11.694C31.655 11.47 31.7623 11.1153 31.7623 10.63C31.7623 10.1353 31.655 9.78067 31.4403 9.566C31.2256 9.342 30.8663 9.23 30.3623 9.23H28.9343V12.03H30.3623ZM19.2571 28.25V30H12.2011V28.25H14.4691V22.23H12.7191L12.3691 20.48H16.9891V28.25H19.2571ZM24.648 30.168C23.752 30.168 23.0007 29.9487 22.394 29.51C21.7967 29.062 21.3533 28.46 21.064 27.704C20.7747 26.948 20.63 26.0987 20.63 25.156C20.63 24.2413 20.7747 23.42 21.064 22.692C21.3533 21.964 21.7967 21.39 22.394 20.97C23.0007 20.5407 23.752 20.326 24.648 20.326C25.544 20.326 26.2907 20.5407 26.888 20.97C27.4947 21.39 27.9427 21.964 28.232 22.692C28.5213 23.42 28.666 24.2413 28.666 25.156C28.666 26.0987 28.5213 26.948 28.232 27.704C27.9427 28.46 27.4947 29.062 26.888 29.51C26.2907 29.9487 25.544 30.168 24.648 30.168ZM24.648 28.362C25.1613 28.362 25.5393 28.0633 25.782 27.466C26.0247 26.8593 26.146 26.0893 26.146 25.156C26.146 24.2787 26.0247 23.5553 25.782 22.986C25.5393 22.4167 25.1613 22.132 24.648 22.132C24.1347 22.132 23.7567 22.4167 23.514 22.986C23.2713 23.5553 23.15 24.2787 23.15 25.156C23.15 26.0893 23.2713 26.8593 23.514 27.466C23.7567 28.0633 24.1347 28.362 24.648 28.362Z" fill="white"/>
</svg>
